<svg height="812" viewBox="0 0 783.79 812" width="783.79" xmlns="http://www.w3.org/2000/svg"><path d="m728.72 0-7.31 7.04-79.52 76.63-134.81 129.91 6.35 556.08-512.76-126.24v-368.05l193.43-222.98z" fill="#373e46"/><path d="m728.72 0-7.31 7.04-79.52 76.63-134.81 129.91 6.35 556.08-512.76-126.24v-368.05l193.43-222.98z" opacity=".1"/><path d="m783.79 353.28-14.77 377.45-529.25 80.6-239.1-167.91v-362.68l506.41-67.16z" fill="#373e46"/><path d="m783.12 353.28-14.78 377.45-529.24 80.6-239.1-167.91v-362.68l506.41-67.16z" fill="#373e46"/><path d="m239.77 421.78v389.55l-239.1-167.91v-362.44z" opacity=".1"/><path d="m721.41 7.04-79.52 76.63-383.31 42.6-68.51-67.17z" opacity=".1"/><path d="m507.08 213.58 5.37 560.14 256.57-42.99 14.77-377.45z" opacity=".1"/><path d="m783.79 353.28-103.43-9.41-248.45-123.01 75.17-7.28z" fill="#373e46"/><path d="m194.1 52.39 68.51 67.16 459.39-51.04 6.72-68.51z" fill="#373e46"/><path d="m556 303.92a43.49 43.49 0 0 1 -1 9.47 42.71 42.71 0 0 1 -7 15.63 45.23 45.23 0 0 1 -3.7 4.47 42.7 42.7 0 0 1 -26.3 13.13 42.3 42.3 0 0 1 -4.94.28 42.81 42.81 0 0 1 -15.73-3 41.86 41.86 0 0 1 -4.2-1.91 43.07 43.07 0 0 1 -20.71-24.09 38.65 38.65 0 0 1 -1.29-4.54c-.27-1.18-.48-2.38-.65-3.59a44 44 0 0 1 -.4-5.88 42.7 42.7 0 0 1 1.87-12.56c.24-.82.52-1.63.82-2.44a43 43 0 0 1 75.79-9.23 42.75 42.75 0 0 1 7.44 24.26z" fill="#eeeff0" transform="translate(-208.1 -44)"/><ellipse cx="344.55" cy="211.56" fill="#2abe5c" rx="57.09" ry="79.25"/><ellipse cx="344.55" cy="211.56" opacity=".1" rx="57.09" ry="79.25"/><path d="m650 64.82a119.55 119.55 0 0 0 -90.65 197.49c2.31 2.7 4.75 5.29 7.3 7.73a119.17 119.17 0 0 0 48.25 28.64c3 .93 6.1 1.75 9.21 2.42a120.15 120.15 0 0 0 48.35.7c3.18-.59 6.34-1.32 9.43-2.19a119.09 119.09 0 0 0 50.19-28.34q4.15-3.91 7.91-8.21a119.54 119.54 0 0 0 -89.99-198.24zm0 22.84a8.06 8.06 0 1 1 8.06-8.06 8.06 8.06 0 0 1 -8.06 8.06z" fill="#2abe5c" transform="translate(-208.1 -44)"/><ellipse cx="549.39" cy="229.03" fill="#975656" rx="40.3" ry="61.79"/><ellipse cx="549.39" cy="229.03" opacity=".1" rx="21.49" ry="32.95"/><ellipse cx="441.93" cy="435.89" fill="#975656" rx="139.7" ry="154.47"/><ellipse cx="441.93" cy="435.89" opacity=".1" rx="139.7" ry="154.47"/><ellipse cx="334.47" cy="229.03" fill="#975656" rx="40.3" ry="61.79"/><ellipse cx="334.47" cy="229.03" opacity=".1" rx="21.49" ry="32.95"/><path d="m350.52 217.98 1.4-150.15-8.69 142.42z" opacity=".1"/><path d="m617.78 111.83-1.69 181.17c-3.11-.67-6.19-1.49-9.21-2.42z" opacity=".1" transform="translate(-208.1 -44)"/><path d="m675.54 111.83-1.67 179.72c-3.09.87-6.25 1.6-9.43 2.19z" opacity=".1" transform="translate(-208.1 -44)"/><path d="m523.87 211 1.33-143.17-9.24 151.38z" opacity=".1"/><rect height="77.91" opacity=".1" rx="12" width="239.1" x="322.38" y="137.68"/><path d="m760.18 294.52a110 110 0 1 1 -4.07-29.77 110.15 110.15 0 0 1 4.07 29.77z" fill="#975656" transform="translate(-208.1 -44)"/><path d="m756.11 264.75a16.4 16.4 0 0 1 -2.64.22h-206.86a16.53 16.53 0 0 1 -2.65-.22 110.27 110.27 0 0 1 81.83-77.69h48.49a110.27 110.27 0 0 1 81.83 77.69z" opacity=".1" transform="translate(-208.1 -44)"/><rect fill="#eeeff0" height="77.91" rx="16.12" width="239.1" x="322.38" y="140.37"/><path d="m348.8 210.22 3.12-51.04-.47 51.04z" opacity=".1"/><path d="m409.21 210.22.47-51.04-3.12 51.04z" opacity=".1"/><path d="m467.44 159.18-.48 51.04h-2.64z" opacity=".1"/><path d="m522.08 210.22 3.12-51.04-.47 51.04z" opacity=".1"/><circle cx="400.29" cy="237.09" opacity=".1" r="14.78"/><circle cx="400.29" cy="235.74" fill="#eeeff0" r="14.78"/><circle cx="400.29" cy="235.74" fill="#373e46" r="6.72"/><circle cx="401.63" cy="233.06" fill="#fff" r="1.34"/><circle cx="488.95" cy="237.09" opacity=".1" r="14.78"/><circle cx="488.95" cy="235.74" fill="#eeeff0" r="14.78"/><circle cx="488.95" cy="235.74" fill="#373e46" r="6.72"/><circle cx="486.26" cy="233.06" fill="#fff" r="1.34"/><circle cx="444.62" cy="281.41" opacity=".1" r="44.33"/><circle cx="444.62" cy="278.73" fill="#2abe5c" r="44.33"/><path d="m783.12 355.29-6.11 131.24-2.47 53.03-8.88 190.5-529.25 81.94v-390.89z" fill="#373e46"/><path d="m.67 280.74 101.99-13.53 215.02 115.62-77.91 38.95z" fill="#373e46"/><path d="m.67 280.74 101.99-13.53 215.02 115.62-77.91 38.95z" opacity=".05"/><g transform="translate(-208.1 -44)"><path d="m449.82 358.59-13.54-7.25a3 3 0 0 0 -3.46.48l-11.07 10.63a3 3 0 0 1 -5-2.66l2.71-15.11a3 3 0 0 0 -1.52-3.14l-13.54-7.25a3 3 0 0 1 1-5.56l15.21-2.09a3 3 0 0 0 2.52-2.42l2.7-15.11a3 3 0 0 1 5.6-.77l6.69 13.82a3 3 0 0 0 3.08 1.64l15.2-2.09a3 3 0 0 1 2.47 5.08l-11.08 10.63a3 3 0 0 0 -.61 3.44l6.69 13.82a3 3 0 0 1 -4.05 3.91z" opacity=".1"/><path d="m447.81 355.79-12-6.42a2.64 2.64 0 0 0 -3.07.42l-9.82 9.43a2.63 2.63 0 0 1 -4.41-2.36l2.4-13.4a2.63 2.63 0 0 0 -1.35-2.79l-12-6.42a2.63 2.63 0 0 1 .88-4.93l13.49-1.86a2.63 2.63 0 0 0 2.23-2.14l2.4-13.41a2.63 2.63 0 0 1 5-.68l5.94 12.25a2.62 2.62 0 0 0 2.73 1.46l13.48-1.85a2.63 2.63 0 0 1 2.19 4.5l-9.9 9.41a2.61 2.61 0 0 0 -.55 3l5.94 12.26a2.63 2.63 0 0 1 -3.58 3.53z" fill="#eeeff0"/><path d="m948.12 744.08-8.36-4.48a1.83 1.83 0 0 0 -2.14.29l-6.85 6.58a1.83 1.83 0 0 1 -3.07-1.65l1.67-9.34a1.83 1.83 0 0 0 -.94-1.94l-8.37-4.48a1.84 1.84 0 0 1 .62-3.44l9.4-1.29a1.85 1.85 0 0 0 1.56-1.5l1.67-9.34a1.84 1.84 0 0 1 3.46-.48l4.13 8.55a1.85 1.85 0 0 0 1.91 1l9.4-1.29a1.83 1.83 0 0 1 1.52 3.14l-6.84 6.59a1.85 1.85 0 0 0 -.39 2.13l4.14 8.54a1.84 1.84 0 0 1 -2.52 2.41z" opacity=".1"/><path d="m946.89 742.35-7.43-4a1.62 1.62 0 0 0 -1.89.26l-6.07 5.83a1.63 1.63 0 0 1 -2.73-1.46l1.48-8.29a1.62 1.62 0 0 0 -.83-1.72l-7.42-3.97a1.63 1.63 0 0 1 .55-3l8.33-1.15a1.61 1.61 0 0 0 1.38-1.32l1.49-8.29a1.63 1.63 0 0 1 3.07-.42l3.66 7.58a1.63 1.63 0 0 0 1.69.9l8.34-1.15a1.63 1.63 0 0 1 1.35 2.79l-6.07 5.83a1.62 1.62 0 0 0 -.34 1.88l3.67 7.58a1.62 1.62 0 0 1 -2.23 2.12z" fill="#2abe5c"/><path d="m511.56 543.93-8.36-4.48a1.85 1.85 0 0 0 -2.14.3l-6.85 6.57a1.83 1.83 0 0 1 -3.07-1.65l1.67-9.34a1.84 1.84 0 0 0 -.94-1.94l-8.37-4.48a1.83 1.83 0 0 1 .62-3.43l9.4-1.3a1.84 1.84 0 0 0 1.56-1.49l1.67-9.35a1.84 1.84 0 0 1 3.46-.47l4.14 8.54a1.82 1.82 0 0 0 1.9 1l9.4-1.3a1.84 1.84 0 0 1 1.52 3.15l-6.84 6.57a1.82 1.82 0 0 0 -.33 2.17l4.13 8.54a1.84 1.84 0 0 1 -2.57 2.39z" opacity=".1"/><path d="m510.33 542.21-7.42-4a1.65 1.65 0 0 0 -1.9.26l-6.07 5.83a1.63 1.63 0 0 1 -2.73-1.46l1.48-8.28a1.61 1.61 0 0 0 -.83-1.72l-7.42-4a1.62 1.62 0 0 1 .55-3l8.33-1.15a1.62 1.62 0 0 0 1.38-1.33l1.49-8.28a1.63 1.63 0 0 1 3.07-.42l3.66 7.57a1.62 1.62 0 0 0 1.69.9l8.39-1.13a1.62 1.62 0 0 1 1.35 2.78l-6.07 5.83a1.63 1.63 0 0 0 -.34 1.89l3.67 7.57a1.63 1.63 0 0 1 -2.28 2.14z" fill="#2abe5c"/><path d="m948.12 664.83-8.36-4.48a1.83 1.83 0 0 0 -2.14.29l-6.85 6.57a1.83 1.83 0 0 1 -3.07-1.64l1.67-9.34a1.85 1.85 0 0 0 -.94-2l-8.37-4.47a1.84 1.84 0 0 1 .62-3.44l9.4-1.3a1.83 1.83 0 0 0 1.56-1.49l1.67-9.34a1.84 1.84 0 0 1 3.46-.48l4.13 8.54a1.84 1.84 0 0 0 1.91 1l9.4-1.29a1.83 1.83 0 0 1 1.52 3.14l-6.84 6.57a1.85 1.85 0 0 0 -.39 2.13l4.14 8.54a1.84 1.84 0 0 1 -2.52 2.49z" opacity=".1"/><path d="m946.89 663.1-7.43-4a1.61 1.61 0 0 0 -1.89.26l-6.07 5.83a1.63 1.63 0 0 1 -2.73-1.46l1.48-8.29a1.62 1.62 0 0 0 -.83-1.72l-7.42-4a1.63 1.63 0 0 1 .55-3l8.33-1.15a1.61 1.61 0 0 0 1.38-1.32l1.49-8.29a1.63 1.63 0 0 1 3.07-.42l3.66 7.57a1.64 1.64 0 0 0 1.69.91l8.34-1.15a1.63 1.63 0 0 1 1.35 2.79l-6.07 5.83a1.61 1.61 0 0 0 -.34 1.88l3.67 7.57a1.63 1.63 0 0 1 -2.23 2.16z" fill="#2abe5c"/></g><ellipse cx="371.41" cy="421.78" fill="#975656" rx="27.54" ry="45"/><ellipse cx="523.2" cy="405.66" fill="#975656" rx="27.54" ry="45"/><path d="m777.01 486.53-2.47 53.03-538.13 55.33-235.74-107.38v-51.62l235.74 102.9z" fill="#2abe5c"/><path d="m236.41 538.79v56.1l-235.74-107.38v-51.62z" opacity=".1"/></svg>