<svg height="200" viewBox="0 0 1024 1024" width="200" xmlns="http://www.w3.org/2000/svg">
    <path d="M480.071312 702.877305c-7.090489 0-14.06125-0.314155-20.907169-0.943488-28.380374-2.606361-54.631248-10.593266-78.021981-23.735587-40.074717-22.51683-57.772798-52.31039-58.506509-53.570079-2.848884-4.881171-1.201361-11.146874 3.679809-13.994736 4.871961-2.843768 11.127432-1.207501 13.982456 3.65525 0.249687 0.419556 16.298198 26.953885 51.834552 46.604434 47.832402 26.448372 106.644879 28.664853 174.800142 6.588045 5.377474-1.738597 11.148921 1.205455 12.889565 6.581905s-1.205455 11.146874-6.581905 12.889565C540.539498 697.54281 509.29796 702.877305 480.071312 702.877305z"/>
    <path d="M886.950136 897.583822c-2.648316 0-5.29254-1.02126-7.296173-3.057639L709.233572 721.28556c-3.963265-4.02978-3.910053-10.507308 0.118704-14.470573 4.02978-3.965312 10.507308-3.90903 14.471596 0.11768l170.420391 173.240623c3.963265 4.02978 3.910053 10.509355-0.118704 14.47262C892.132158 896.604518 889.540124 897.583822 886.950136 897.583822z"/>
    <path d="M472.20618 828.28655c-46.64025 0-91.889827-9.287527-134.493134-27.607778-41.133839-17.685801-78.0711-43.00035-109.786429-75.238588-65.200978-66.279542-101.109816-154.387229-101.109816-248.093425 0-93.704149 35.907815-181.809789 101.109816-248.086262 31.715329-32.238238 68.65259-57.552787 109.787452-75.238588 42.603307-18.318204 87.852884-27.605731 134.493134-27.605731 46.6556 0 91.917456 9.287527 134.526903 27.605731 41.138956 17.685801 78.081333 42.999326 109.798708 75.238588 65.198931 66.272379 101.105722 154.37802 101.105722 248.087285 0 4.39203-0.079818 8.989745-0.237407 13.664208-0.191358 5.64865-4.946662 10.086729-10.571776 9.882068-5.649674-0.190335-10.073426-4.924149-9.882068-10.5728 0.149403-4.445242 0.226151-8.809643 0.226151-12.973476 0-182.219111-145.778154-330.464457-324.96521-330.464457-179.163519 0-324.923254 148.245346-324.923254 330.464457 0 182.224228 145.759735 330.473667 324.923254 330.473667 81.524758 0 159.491481-30.827099 219.538065-86.800925 2.232854-2.078335 4.422729-4.177136 6.516414-6.244214 4.019547-3.971451 10.498098-3.931542 14.471596 0.092098 3.970428 4.021593 3.929496 10.501168-0.093121 14.47262-2.234901 2.206248-4.571109 4.445242-6.945179 6.655584C641.850905 795.509029 558.928311 828.28655 472.20618 828.28655z"/>
</svg>