<svg height="200" viewBox="0 0 1024 1024" width="200" xmlns="http://www.w3.org/2000/svg"><path d="m965.40416 342.76608c-19.50976-52.24704-47.744-100.41472-83.92064-143.16288-18.26688-21.58592-50.57408-24.27392-72.15872-6.0096-21.58464 18.26688-24.2752 50.5728-6.00832 72.15872 58.11712 68.67584 90.12352 156.128 90.12352 246.24768 0 210.32576-171.11424 381.44-381.44 381.44-210.32704 0-381.44-171.11424-381.44-381.44 0-210.32704 171.11296-381.44 381.44-381.44 60.48896 0 118.30784 13.72672 171.85152 40.8 25.2288 12.75648 56.03328 2.64704 68.7936-22.58816 12.76032-25.23392 2.64576-56.03456-22.58816-68.7936-68.00384-34.38464-141.36704-51.81824-218.05696-51.81824-65.29536 0-128.66432 12.8-188.34688 38.04416-57.62176 24.37248-109.36064 59.2512-153.7792 103.66976s-79.29856 96.15744-103.66976 153.77792c-25.24416 59.68256-38.04416 123.0528-38.04416 188.34816s12.8 128.6656 38.04416 188.34688c24.37248 57.62176 59.2512 109.36064 103.66976 153.7792s96.15744 79.29856 153.7792 103.66976c59.68256 25.24416 123.05152 38.04416 188.34688 38.04416s128.6656-12.8 188.34816-38.04416c57.62176-24.3712 109.36064-59.2512 153.77792-103.66976 44.41856-44.41856 79.29856-96.15744 103.66976-153.7792 25.24416-59.68128 38.04416-123.05152 38.04416-188.34688 0-58.20672-10.24-115.14496-30.43584-169.23392z"/><path d="m626.46272 286.72768c-26.17984 3.02848-49.95712 12.2048-71.52128 26.98368-9.14816 6.27072-17.57312 13.66272-25.94176 20.98688-5.3952 4.72192-10.08768 10.24896-15.91552 16.25984-7.13088-7.44704-13.34144-14.44608-20.08576-20.88576-23.20384-22.1568-50.68032-36.61312-82.28864-41.64736-16.3968-2.6112-33.42464-3.64928-49.95456-2.45376-23.06432 1.66912-44.93952 8.85632-65.22752 20.6592-13.01632 7.57248-24.9216 16.30336-35.62752 26.86592-23.68384 23.36384-38.74944 51.4048-45.9648 83.74656-1.60768 7.2064-2.69184 14.52928-4.01536 21.7984v29.44c1.32352 7.05408 2.46912 14.14656 4.00384 21.15328 5.46176 24.93824 15.91552 47.73248 31.94624 67.4944 18.72768 23.08864 41.45152 42.15424 64.38528 60.9536 15.96288 13.088 31.24352 27.00288 46.97984 40.36992 24.37376 20.70656 48.94592 41.18016 73.30304 61.90464 16.2112 13.79456 32.128 27.93344 48.3008 41.7728 9.7408 8.33408 19.75168 16.352 29.568 24.6016 1.40928 1.184 2.40512 2.85952 3.59296 4.30848h2.56c16.69504-14.40768 33.30304-28.91776 50.1056-43.19872 24.37248-20.71424 48.95104-41.184 73.31072-61.91104 16.21248-13.79584 32.09344-27.9808 48.3072-41.77664 21.31072-18.13248 43.20896-35.59936 64.10112-54.19904 19.4432-17.30944 37.10848-36.45056 48.75776-60.13056 8.24192-16.75648 14.23616-34.34368 16.192-53.0944.06912-.65536.85376-1.2352 1.3056-1.8496 0-14.50624 0-29.01376 0-43.52-2.112-8.36096-4.25216-16.71552-6.33088-25.08544-5.03168-20.24832-14.79936-38.20288-27.10656-54.7968-20.66304-27.86176-48.07296-46.80576-80.59392-57.98912-24.64896-8.47616-50.22592-9.76-76.14592-6.76096z"/></svg>