<svg height="200" viewBox="0 0 1024 1024" width="200" xmlns="http://www.w3.org/2000/svg">
    <path d="M512 64.050782c60.495816 0 119.153774 11.836583 174.345794 35.181267 53.335742 22.558785 101.245915 54.864562 142.401244 96.01989s73.461105 89.066525 96.01989 142.401244c23.344684 55.19202 35.181267 113.851001 35.181267 174.345794 0 60.494793-11.836583 119.153774-35.181267 174.345793-22.558785 53.334719-54.864562 101.245915-96.01989 142.401244s-89.066525 73.461105-142.401244 96.019891c-55.19202 23.344684-113.851001 35.181267-174.345794 35.181267s-119.153774-11.836583-174.345794-35.181267c-53.335742-22.558785-101.245915-54.864562-142.401244-96.019891S121.791857 739.679489 99.233072 686.34477c-23.344684-55.19202-35.181267-113.851001-35.181267-174.345793 0-60.495816 11.836583-119.153774 35.181267-174.345794 22.558785-53.335742 54.864562-101.245915 96.01989-142.401244s89.066525-73.461105 142.401244-96.01989c55.19202-23.344684 113.849978-35.181267 174.345794-35.181267m0-51.16531c-275.653107 0-499.114528 223.461421-499.114528 499.114528S236.346893 1011.114528 512 1011.114528s499.114528-223.461421 499.114528-499.114528S787.653107 12.885472 512 12.885472z"/>
    <path d="M676.466796 415.924851h-32.180934v64.315818h-64.346517v32.196283h64.346517v64.330144h32.180934v-64.330144h64.346517V480.240669h-64.346517v-64.315818zM518.822382 525.313214c-6.414083-3.215228-12.907984-6.477528-16.075117-9.629312-6.462179-3.245927-12.859889-9.644661-12.859889-19.321044s6.414083-19.337417 12.859889-22.536272c28.933983-19.321044 51.424206-41.841967 51.424207-86.86744 0-35.379789-16.028045-57.917084-28.933983-70.824046h22.536272l3.262301-3.151783 22.47385-22.536272 9.661034-9.661034H448.045409c-90.066295 0-131.924635 61.132312-131.924635 115.817796 0 48.25605 38.59604 96.496751 102.926184 96.496751h12.875239c-3.215228 6.445806-3.215228 9.661034-3.215228 16.090466 0 16.122189 3.215228 25.783223 9.661033 32.180934-41.794895 3.2623-73.992201 12.922311-99.727328 28.982078-45.057195 25.7515-48.25605 61.132312-48.256051 77.206406 0 45.040822 41.810245 96.512101 131.924635 96.512101 115.849518 0 157.64339-67.530023 157.64339-125.47883-0.014326-51.470255-35.410488-73.959455-61.130266-93.280499zM380.436592 370.915751c0-41.841967 22.520923-54.765301 41.85834-54.765301 48.25605 0 67.593468 64.37824 67.593468 96.512101 0 48.25605-45.057195 51.5337-45.057196 51.5337-45.057195-0.014326-64.394612-54.685483-64.394612-93.2805z m70.808696 334.562799c-64.331167 0-96.528474-35.412534-96.528474-70.77595 0-32.150234 25.735128-48.25605 48.25605-54.686507 19.337417-6.445806 48.2714-9.661034 57.932434-9.661034h9.661034c41.841967 32.197306 57.870012 48.25605 57.870012 70.792323 0 32.132838-28.935006 64.331167-77.191056 64.331168z"/>
</svg>