<svg height="200" viewBox="0 0 1024 1024" width="200" xmlns="http://www.w3.org/2000/svg">
    <path d="M630.4 308.266667c4.266667-6.4 8.533333-12.8 12.8-20.266667 37.333333-65.066667 34.133333-133.333333-6.4-156.8-19.2-10.666667-42.666667-9.6-67.2 2.133333C554.666667 110.933333 533.333333 98.133333 512 98.133333s-42.666667 12.8-57.6 35.2c-24.533333-11.733333-49.066667-12.8-67.2-2.133333-40.533333 23.466667-43.733333 92.8-6.4 156.8 4.266667 6.4 8.533333 13.866667 12.8 20.266667C226.133333 363.733333 93.866667 534.4 93.866667 700.8c0 210.133333 211.2 238.933333 418.133333 238.933333h16c194.133333-6.4 402.133333-30.933333 402.133333-238.933333 0-166.4-132.266667-337.066667-299.733333-392.533333z m-103.466667 599.466666H512c-274.133333 0-386.133333-59.733333-386.133333-206.933333 0-161.066667 134.4-326.4 299.733333-369.066667 5.333333-1.066667 9.6-5.333333 11.733333-10.666666s0-11.733333-4.266666-14.933334c-9.6-9.6-17.066667-21.333333-24.533334-33.066666-29.866667-51.2-26.666667-101.333333-5.333333-113.066667 4.266667-2.133333 8.533333-3.2 13.866667-3.2 9.6 0 22.4 4.266667 35.2 12.8 4.266667 2.133333 8.533333 3.2 12.8 2.133333 4.266667-1.066667 8.533333-4.266667 10.666666-8.533333 9.6-20.266667 23.466667-32 37.333334-32s26.666667 11.733333 37.333333 32c2.133333 4.266667 5.333333 7.466667 10.666667 8.533333 4.266667 1.066667 9.6 0 12.8-2.133333 19.2-12.8 36.266667-16 48-9.6 21.333333 11.733333 24.533333 61.866667-5.333334 113.066667-7.466667 12.8-14.933333 23.466667-24.533333 33.066666-4.266667 4.266667-5.333333 9.6-4.266667 14.933334s6.4 9.6 11.733334 10.666666c165.333333 42.666667 299.733333 208 299.733333 369.066667-1.066667 163.2-142.933333 199.466667-372.266667 206.933333z"/>
    <path d="M715.733333 429.866667c-20.266667-17.066667-42.666667-32-65.066666-44.8-7.466667-4.266667-17.066667-1.066667-21.333334 6.4-4.266667 7.466667-1.066667 17.066667 6.4 21.333333 21.333333 11.733333 41.6 25.6 60.8 41.6 14.933333 11.733333 28.8 24.533333 41.6 38.4 3.2 3.2 7.466667 5.333333 11.733334 5.333333 4.266667 0 7.466667-1.066667 10.666666-4.266666 6.4-6.4 6.4-16 1.066667-22.4-14.933333-14.933333-29.866667-28.8-45.866667-41.6zM462.933333 556.8c3.2 2.133333 6.4 4.266667 10.666667 4.266667s8.533333-2.133333 11.733333-5.333334c5.333333-6.4 5.333333-17.066667-2.133333-22.4l-34.133333-29.866666c-6.4-5.333333-17.066667-5.333333-22.4 2.133333-5.333333 6.4-5.333333 17.066667 2.133333 22.4l34.133333 28.8zM550.4 561.066667c3.2 0 7.466667-1.066667 10.666667-4.266667l34.133333-29.866667c6.4-5.333333 7.466667-16 2.133333-22.4-5.333333-6.4-16-7.466667-22.4-2.133333L539.733333 533.333333c-6.4 5.333333-7.466667 16-2.133333 22.4 4.266667 3.2 8.533333 5.333333 12.8 5.333334zM630.4 670.933333h-102.4v-55.466666H597.333333c8.533333 0 16-7.466667 16-16s-7.466667-16-16-16H426.666667c-8.533333 0-16 7.466667-16 16s7.466667 16 16 16h69.333333v55.466666h-102.4c-8.533333 0-16 7.466667-16 16s7.466667 16 16 16h102.4v55.466667c0 8.533333 7.466667 16 16 16s16-7.466667 16-16v-55.466667h102.4c8.533333 0 16-7.466667 16-16s-7.466667-16-16-16z"/>
</svg>