<svg height="200" viewBox="0 0 1100 1024" width="214.84375" xmlns="http://www.w3.org/2000/svg">
    <path d="m1007.779612 304.809898-228.418668-54.612951-126.292449-194.899969a123.220471 123.220471 0 0 0 -205.61776 0l-126.29245 194.899969-228.452801 54.612951a117.998107 117.998107 0 0 0 -63.624088 192.510653l150.390414 172.713457-16.486284 226.643747a120.319158 120.319158 0 0 0 121.206618 127.316442 125.541521 125.541521 0 0 0 45.22635-8.533273l220.977653-86.015398 220.94352 86.015398a125.678054 125.678054 0 0 0 45.22635 8.533273 120.319158 120.319158 0 0 0 121.240752-127.316442l-16.520418-226.643747 150.424547-172.713457a117.998107 117.998107 0 0 0 -63.931286-192.510653zm-698.602043 173.054789a68.812318 68.812318 0 1 1 68.812318 68.266189 68.641653 68.641653 0 0 1 -68.812318-68.266189zm409.221669 220.158459a206.368689 206.368689 0 0 1 -336.757109 0 33.791763 33.791763 0 0 1 15.359892-45.738347 34.474425 34.474425 0 0 1 45.977278 14.677231 139.945687 139.945687 0 0 0 214.116901 0 34.849889 34.849889 0 0 1 46.250343-14.3359 33.825897 33.825897 0 0 1 15.052695 45.397016zm3.618108-151.89227a68.266189 68.266189 0 1 1 68.812318-68.266189 68.641653 68.641653 0 0 1 -68.812318 68.266189z"/>
</svg>