<svg height="200" viewBox="0 0 1024 1024" width="200" xmlns="http://www.w3.org/2000/svg">
<path d="M405.333333 533.333333a85.333333 85.333333 0 0 1 85.333334 85.333334v256a85.333333 85.333333 0 0 1-85.333334 85.333333H149.333333a85.333333 85.333333 0 0 1-85.333333-85.333333V618.666667a85.333333 85.333333 0 0 1 85.333333-85.333334h256z m469.333334 0a85.333333 85.333333 0 0 1 85.333333 85.333334v256a85.333333 85.333333 0 0 1-85.333333 85.333333H618.666667a85.333333 85.333333 0 0 1-85.333334-85.333333V618.666667a85.333333 85.333333 0 0 1 85.333334-85.333334h256z m-469.333334 42.666667H149.333333a42.666667 42.666667 0 0 0-42.56 39.466667L106.666667 618.666667v256a42.666667 42.666667 0 0 0 39.466666 42.56L149.333333 917.333333h256a42.666667 42.666667 0 0 0 42.56-39.466666L448 874.666667V618.666667a42.666667 42.666667 0 0 0-39.466667-42.56L405.333333 576z m469.333334 0H618.666667a42.666667 42.666667 0 0 0-42.56 39.466667L576 618.666667v256a42.666667 42.666667 0 0 0 39.466667 42.56L618.666667 917.333333h256a42.666667 42.666667 0 0 0 42.56-39.466666L917.333333 874.666667V618.666667a42.666667 42.666667 0 0 0-39.466666-42.56L874.666667 576zM405.333333 64a85.333333 85.333333 0 0 1 85.333334 85.333333v256a85.333333 85.333333 0 0 1-85.333334 85.333334H149.333333a85.333333 85.333333 0 0 1-85.333333-85.333334V149.333333a85.333333 85.333333 0 0 1 85.333333-85.333333h256z m352-21.333333C881.045333 42.666667 981.333333 142.954667 981.333333 266.666667S881.045333 490.666667 757.333333 490.666667 533.333333 390.378667 533.333333 266.666667 633.621333 42.666667 757.333333 42.666667zM405.333333 106.666667H149.333333a42.666667 42.666667 0 0 0-42.56 39.466666L106.666667 149.333333v256a42.666667 42.666667 0 0 0 39.466666 42.56L149.333333 448h256a42.666667 42.666667 0 0 0 42.56-39.466667L448 405.333333V149.333333a42.666667 42.666667 0 0 0-39.466667-42.56L405.333333 106.666667z m352-21.333334a181.333333 181.333333 0 1 0 0 362.666667 181.333333 181.333333 0 0 0 0-362.666667z"/>
</svg>