<svg height="200" viewBox="0 0 1024 1024" width="200" xmlns="http://www.w3.org/2000/svg">
    <path d="M790.997333 386.56a124.586667 124.586667 0 0 0-89.258666 37.674667L368.64 190.165333c7.296-15.872 11.648-33.365333 11.648-51.925333 0-69.077333-56.192-125.269333-125.269333-125.269333S129.792 69.162667 129.792 138.24a125.397333 125.397333 0 0 0 125.269333 125.226667 124.586667 124.586667 0 0 0 89.557334-38.016l333.013333 233.984a123.946667 123.946667 0 0 0-11.861333 52.394666c0 19.285333 4.736 37.333333 12.544 53.674667l-334.976 230.314667a124.8 124.8 0 0 0-88.32-36.522667 125.354667 125.354667 0 0 0-125.269334 125.226667c0 69.077333 56.192 125.269333 125.269334 125.269333s125.269333-56.149333 125.269333-125.269333c0-19.285333-4.736-37.333333-12.544-53.674667l334.976-230.314667a124.8 124.8 0 0 0 88.277333 36.565334 125.397333 125.397333 0 0 0 125.269334-125.269334 125.44 125.44 0 0 0-125.269334-125.269333zM255.061333 220.8A82.688 82.688 0 0 1 172.458667 138.24a82.645333 82.645333 0 1 1 82.602666 82.56z m0 746.282667a82.688 82.688 0 0 1-82.602666-82.602667c0-45.482667 37.034667-82.56 82.602666-82.56s82.602667 37.034667 82.602667 82.56a82.730667 82.730667 0 0 1-82.602667 82.602667z m535.936-372.693334c-45.482667 0-82.56-37.034667-82.56-82.602666s37.034667-82.602667 82.56-82.602667c45.525333 0 82.602667 37.034667 82.602667 82.602667s-37.077333 82.602667-82.602667 82.602666z"/>
</svg>