<svg height="200" viewBox="0 0 1024 1024" width="200" xmlns="http://www.w3.org/2000/svg">
    <path d="M512.41182663 499.10868569a112.68849627 112.68849627 0 1 1 112.68849627-112.60254006 112.77445249 112.77445249 0 0 1-112.68849627 112.60254006z m0-202.59861574a89.99607568 89.99607568 0 1 0 89.99607568 89.99607568A90.08203189 90.08203189 0 0 0 512.41182663 296.51006995z"/>
    <path d="M727.30217014 713.91307217a11.3462103 11.3462103 0 0 1-11.3462103-11.34620947 203.54413321 203.54413321 0 0 0-407.00231021 0 11.3462103 11.3462103 0 1 1-22.6924206 0 226.23655381 226.23655381 0 0 1 452.3871514 0 11.3462103 11.3462103 0 0 1-11.34621029 11.34620947z"/>
    <path d="M512.41182663 933.87482779a421.87272253 421.87272253 0 1 1 204.23178204-790.79646341 11.3462103 11.3462103 0 1 1-11.00238547 19.8558674A398.32074069 398.32074069 0 1 0 894.22898871 395.35962756a11.3462103 11.3462103 0 0 1 21.57499072-6.7045784 421.95867791 421.95867791 0 0 1-403.3921528 545.21977863z"/>
    <path d="M736.32756448 380.48921607a11.60407892 11.60407892 0 0 1-7.39222805-2.75059699 11.43216651 11.43216651 0 0 1-1.20338608-15.98784137l197.69911606-229.24501858a11.3462103 11.3462103 0 1 1 17.19122745 14.87041233l-197.69911606 229.15906237a11.43216651 11.43216651 0 0 1-8.59561332 3.95398224z"/>
</svg>