<svg height="200" viewBox="0 0 1024 1024" width="200" xmlns="http://www.w3.org/2000/svg">
    <path d="M512.1 959.6c-246.9 0-447.8-200.9-447.8-447.8S265.2 64 512.1 64s447.8 200.9 447.8 447.8c0 73.7-18.3 146.7-52.9 211.3-4.4 8.2-14.6 11.3-22.8 6.9-8.2-4.4-11.3-14.6-6.9-22.8 32-59.7 48.9-127.2 48.9-195.4 0-228.4-185.8-414.1-414.1-414.1S98 283.4 98 511.8s185.8 414.1 414.1 414.1c76.8 0 151.7-21.1 216.7-61.2 7.9-4.9 18.3-2.4 23.1 5.5 4.9 7.9 2.4 18.3-5.5 23.1-70.3 43.4-151.3 66.3-234.3 66.3z"/>
    <path d="M482.8 710.9c-4.6 0-9.1-1.9-12.3-5.3-3.9-4.2-5.4-10.1-4-15.7L523.8 467l-63.2 8.8c-9.2 1.2-17.7-5.1-19-14.3-1.3-9.2 5.1-17.7 14.3-19l88-12.2c5.5-0.7 11.1 1.3 14.9 5.5 3.7 4.2 5.1 10 3.7 15.4l-57 221.7 57.2-10.6c9.1-1.7 17.9 4.3 19.6 13.5 1.7 9.1-4.3 17.9-13.5 19.6l-83.1 15.4c-0.8 0-1.9 0.1-2.9 0.1zM544.2 375.1c-1.4 0-2.8-0.2-4.2-0.5-9-2.3-14.4-11.5-12.1-20.5l14.4-56.1c2.3-9 11.5-14.4 20.5-12.1 9 2.3 14.4 11.5 12.1 20.5l-14.4 56.1c-2 7.6-8.8 12.6-16.3 12.6z"/>
</svg>