<svg height="200" viewBox="0 0 1024 1024" width="200" xmlns="http://www.w3.org/2000/svg">
    <path d="M671.622689 676.130012c45.703863 45.726312 70.873233 106.483836 70.873233 171.125188 0 8.347271 6.761494 15.122031 15.123052 15.122031 8.363599 0 15.127134-6.77578 15.127134-15.122031 0-72.723307-28.331742-141.086236-79.754199-192.524-5.914521-5.900235-15.488372-5.900235-21.387587 0C665.707147 660.645721 665.707147 670.232838 671.622689 676.130012z"/>
    <path d="M985.093347 316.67997c-26.001036-62.150436-63.124965-117.67714-111.62996-166.578068-48.272332-48.650919-103.402081-85.602392-165.952533-111.42689-62.375956-25.800008-127.677538-38.675011-196.103735-38.675011-68.051692 0-133.128776 12.875003-195.502691 38.901551-62.549432 26.000016-117.702651 63.125986-165.780077 111.202392-47.899868 47.701901-84.8493 103.053087-110.851357 166.003556-26.174513 63.151497-39.278096 128.203069-39.278096 195.480241 0 59.022761 8.976888 113.981074 26.954136 164.205525 18.000718 50.450991 44.400749 95.426253 79.5746 134.72884 7.251309 8.373803 14.476087 14.853653 21.502898 19.151784 7.049261 4.50222 13.700546 6.649245 19.749767 6.649245 1.952119 0 4.900195-0.597983 8.602384-1.399035 3.894033-0.956161 8.618711-2.504181 14.293427-4.254251-44.575246-56.301224-76.874493-109.303336-96.401802-159.530849C54.520541 620.864543 44.744641 567.705282 44.744641 511.580596c0-61.575924 11.948435-120.776243 35.573867-178.078527 23.674413-57.301264 57.476781-107.927771 101.279547-151.904014 43.997672-43.800725 94.426213-77.652075 151.528489-101.278527 57.074724-23.649922 116.527094-35.548356 178.476502-35.548356 62.180029 0 121.603827 11.673935 178.106079 35.174871 56.501232 23.449914 106.751194 57.47576 151.130514 101.650991 43.975222 43.976243 77.80004 94.429274 101.652011 151.501957 23.825439 57.101256 35.770814 116.528114 35.770814 178.304046 0 61.175908-11.948435 120.431331-35.770814 177.907091-23.851971 57.45229-57.676789 107.904301-101.652011 151.478487-44.004815 44.000733-94.453765 77.826572-151.728497 101.674461-57.276773 23.851971-116.528114 35.777957-177.507075 35.777957-74.897883 0-134.899255-11.925986-179.875537-35.975924-45.154861-24.048918-66.557755-53.886842-66.557755-92.786351 0-8.425846-3.618512-19.046678-0.694926-27.068426l-4.565488-1.350054c5.854315-54.733814 29.994053-105.441958 69.482361-144.931287 44.875258-44.888524 104.315382-69.97932 167.748523-70.796699l3.357277 0.166333c100.08052 0 181.498051-81.401204 181.498051-181.49703 0-100.08052-81.417531-181.49703-181.498051-181.49703-100.079499 0-181.49601 81.416511-181.49601 181.49703 0 71.43448 41.455734 133.338988 101.772424 162.817714-42.1976 12.859696-80.780771 35.92286-112.76776 67.924136-43.116004 43.103759-69.972177 98.106972-77.539825 157.6022l-0.186742-0.056125c-5.676757 14.453637-8.601363 29.10218-8.601363 43.975222 0 49.255025 26.602081 89.504588 79.575621 120.828286 53.152119 31.252266 123.154909 46.90289 210.154295 46.90289 66.877155 0 131.753211-13.103584 195.104716-39.300546 63.152517-26.028589 118.877187-62.928018 166.950532-110.88095 48.103958-48.047834 85.254419-103.596986 111.252394-166.550516 26.203085-62.928018 39.303607-128.229601 39.303607-195.857807C1024.020409 443.757484 1011.121936 378.879388 985.093347 316.67997zM349.250656 424.003635c0-83.382915 67.849643-151.247865 151.246845-151.247865 83.399243 0 151.248886 67.86495 151.248886 151.247865 0 82.837996-66.957771 150.338646-149.612086 151.171332l-1.666393-0.165313-3.311356 0.074493C415.330841 573.466736 349.250656 506.313039 349.250656 424.003635z"/>
</svg>