<svg height="200" viewBox="0 0 1024 1024" width="200" xmlns="http://www.w3.org/2000/svg">
    <path d="M569.936842 858.273684a348.698947 348.698947 0 1 1 348.698947-348.429473 348.698947 348.698947 0 0 1-348.698947 348.429473z m0-692.008421A343.578947 343.578947 0 1 0 913.515789 509.844211 343.848421 343.848421 0 0 0 569.936842 166.265263z"/>
    <path d="M474.273684 589.877895h-21.018947l-17.246316-45.810527h-68.985263l-16.707369 45.810527h-21.018947l62.248421-161.684211h19.671579z m-44.732631-62.787369L404.210526 458.105263a65.751579 65.751579 0 0 1-2.694737-11.048421 60.092632 60.092632 0 0 1-2.694736 11.048421l-25.330527 69.254737zM589.608421 589.877895h-18.593684v-18.593684a37.726316 37.726316 0 0 1-35.84 21.288421c-26.947368 0-41.498947-16.437895-41.498948-49.583158v-69.524211H512V538.947368c0 24.522105 9.431579 36.917895 26.947368 36.917895a26.947368 26.947368 0 0 0 22.366316-10.24 37.456842 37.456842 0 0 0 8.892632-26.947368v-65.212632h18.593684zM681.229474 588.530526a36.648421 36.648421 0 0 1-17.51579 3.772632c-20.210526 0-30.450526-11.317895-30.450526-33.953684v-68.985263h-19.941053v-15.898948h19.941053v-28.294737l18.593684-5.928421v34.223158h29.372632v15.898948h-29.372632v65.482105a26.947368 26.947368 0 0 0 4.042105 16.707368 15.090526 15.090526 0 0 0 13.204211 5.12 20.749474 20.749474 0 0 0 12.126316-3.772631zM752.64 592.842105a53.894737 53.894737 0 0 1-40.96-16.437894 59.823158 59.823158 0 0 1-15.36-43.11579 62.787368 62.787368 0 0 1 15.898947-45.810526 58.206316 58.206316 0 0 1 43.11579-16.437895 51.738947 51.738947 0 0 1 40.690526 16.168421 62.787368 62.787368 0 0 1 14.551579 44.193684 62.787368 62.787368 0 0 1-15.629474 44.732632 55.511579 55.511579 0 0 1-42.307368 16.707368z m1.886316-106.442105a35.84 35.84 0 0 0-28.294737 12.395789 49.852632 49.852632 0 0 0-10.509474 33.684211 46.618947 46.618947 0 0 0 10.509474 32.336842 36.378947 36.378947 0 0 0 28.294737 12.126316 33.953684 33.953684 0 0 0 26.947368-11.048421 50.661053 50.661053 0 0 0 9.701053-33.145263 51.738947 51.738947 0 0 0-9.701053-34.492632 33.953684 33.953684 0 0 0-26.947368-11.856842z"/>
</svg>