<svg height="200" viewBox="0 0 1024 1024" width="200" xmlns="http://www.w3.org/2000/svg">
    <path d="M905.491932 129.545448l-787.03503 0c-64.976874 0-117.658723 52.682873-117.658723 117.658723l0 529.584494c0 64.984037 52.680826 117.665887 117.658723 117.665887l787.03503 0c64.984037 0 117.665887-52.674687 117.665887-117.665887L1023.157819 247.204172C1023.157819 182.228321 970.482109 129.545448 905.491932 129.545448L905.491932 129.545448zM978.73712 776.788665c0 40.388872-32.858362 73.246211-73.245188 73.246211l-787.03503 0c-40.386826 0-73.245188-32.858362-73.245188-73.246211L45.211714 247.204172c0-40.386826 32.858362-73.245188 73.245188-73.245188l787.03503 0c40.386826 0 73.245188 32.858362 73.245188 73.245188L978.73712 776.788665 978.73712 776.788665zM637.071553 416.032298l163.388231 0c12.247952 0 22.214954-9.958816 22.214954-22.205745 0-12.246929-9.967002-22.214954-22.214954-22.214954L637.071553 371.611599c-12.247952 0-22.214954 9.967002-22.214954 22.214954C614.857623 406.073482 624.824625 416.032298 637.071553 416.032298L637.071553 416.032298zM637.071553 546.990932l163.388231 0c12.247952 0 22.214954-9.959839 22.214954-22.207791 0-12.247952-9.967002-22.212908-22.214954-22.212908L637.071553 502.570233c-12.247952 0-22.214954 9.965979-22.214954 22.212908C614.857623 537.031093 624.824625 546.990932 637.071553 546.990932L637.071553 546.990932zM879.083469 633.535007l-242.011916 0c-12.247952 0-22.214954 9.959839-22.214954 22.207791s9.967002 22.212908 22.214954 22.212908l242.011916 0c12.245905 0 22.212908-9.965979 22.212908-22.212908S891.329375 633.535007 879.083469 633.535007L879.083469 633.535007zM485.168911 592.884169c-26.083052-28.03859-59.422368-48.459688-96.41591-59.07035l-3.115967-0.890276 2.857071-1.534959c39.980573-21.418822 64.814168-62.445214 64.814168-107.062388 0-67.223031-54.67832-121.914654-121.889071-121.914654-67.223031 0-121.914654 54.692646-121.914654 121.914654 0 44.61001 24.833595 85.6231 64.807005 107.048061l2.859118 1.534959-3.115967 0.890276c-36.892235 10.576893-70.170153 30.92329-96.247064 58.839083-26.627451 28.493961-44.570101 63.748906-51.888787 101.936647-1.12666 5.816472 0.081864 11.724019 3.408633 16.638959 3.333932 4.907777 8.404414 8.241708 14.237259 9.367345 1.465374 0.298805 2.953262 0.455371 4.424776 0.455371 10.469446 0 19.540032-7.617491 21.563108-18.113543 14.826684-77.353762 82.878592-133.496433 161.813363-133.496433 79.186504 0 147.278321 56.388265 161.895227 134.073578 1.976004 10.483772 11.148921 18.086937 21.806655 18.086937 1.466398 0 2.831488-0.12382 4.148483-0.38067 12.037151-2.27481 19.980054-13.917988 17.706267-25.955138C529.704221 656.897088 511.807618 621.499903 485.168911 592.884169L485.168911 592.884169zM331.426365 346.833263c42.715871 0 77.468372 34.765805 77.468372 77.493955 0 42.736337-34.752502 77.503165-77.468372 77.503165-42.736337 0-77.501118-34.765805-77.501118-77.503165C253.925247 381.599068 288.689005 346.833263 331.426365 346.833263L331.426365 346.833263zM331.426365 346.833263"/>
</svg>