<svg height="200" viewBox="0 0 1024 1024" width="200" xmlns="http://www.w3.org/2000/svg">
    <path d="m523.604092 436.813576h-1.039515c-69.104485.620606-143.778909 63.379394-224.038788 188.338424a119.575273 119.575273 0 0 0 19.549091 152.560485l13.203394 12.179394a97.512727 97.512727 0 0 0 66.218667 25.863757c19.502545 0 39.098182-5.833697 55.994181-17.671757l6.981819-4.887273a100.181333 100.181333 0 0 1 57.530181-18.121697 100.227879 100.227879 0 0 1 57.344 17.997576l4.499394 3.13406a96.814545 96.814545 0 0 0 55.420122 17.392485 96.907636 96.907636 0 0 0 63.58109-23.722666l18.835394-16.290909a121.37503 121.37503 0 0 0 22.698667-157.137455c-76.675879-119.77697-148.914424-179.634424-216.777697-179.634424m0 49.912242c21.845333 0 46.483394 11.23297 73.24703 33.419637 31.976727 26.499879 66.125576 67.956364 101.500122 123.190303a71.478303 71.478303 0 0 1 -13.374061 92.547878l-18.773333 16.259879-.031031.015515v.015515a47.166061 47.166061 0 0 1 -57.809454 3.072l-4.499394-3.118545a149.581576 149.581576 0 0 0 -85.860849-26.965333 149.550545 149.550545 0 0 0 -86.140121 27.151515h-.015515l-.03103.015515-6.950788 4.871758a47.476364 47.476364 0 0 1 -27.368727 8.641939c-12.039758 0-23.552-4.499394-32.380122-12.629333l-13.218909-12.194909a69.554424 69.554424 0 0 1 -11.403636-88.901819c37.236364-57.949091 73.014303-101.546667 106.340848-129.551515 28.004848-23.536485 53.573818-35.591758 76.024243-35.84zm-285.944242-97.497212c-19.254303 0-37.143273 6.950788-49.772606 19.316364-25.956848 25.444848-21.286788 77.001697 5.740606 110.855757 14.723879 18.432 35.995152 28.796121 57.91806 28.796121 18.323394 0 37.112242-7.245576 52.922182-23.055515 34.753939-34.753939 30.952727-77.187879-5.740606-110.855757-18.819879-17.314909-40.711758-25.05697-61.067636-25.05697m550.865454-13.017212c-28.547879 0-57.716364 17.501091-76.489697 42.511515-25.165576 33.481697-21.47297 80.554667 25.010425 108.125091l.015515.015515c13.451636 7.974788 26.220606 11.450182 38.074181 11.450182 29.168485 0 52.720485-20.976485 66.901334-47.522909 19.93697-37.360485 11.015758-90.701576-25.05697-108.140606a64.744727 64.744727 0 0 0 -28.454788-6.438788m-399.344485-181.992727c-2.947879 0-5.957818.201697-8.998787.620606-46.452364 6.547394-68.856243 60.229818-68.856243 120.335515 0 54.892606 28.237576 97.854061 83.052606 97.85406 5.197576 0 10.627879-.372364 16.290909-1.179151 65.536-9.18497 85.069576-61.688242 68.887273-120.335515-15.127273-54.768485-48.190061-97.31103-90.375758-97.31103m241.539879-4.03394c-41.921939.015515-78.661818 43.938909-92.827151 97.838546-15.313455 58.352485-1.117091 114.920727 63.968969 126.370909 7.819636 1.396364 15.142788 2.063515 22.000485 2.063515 50.269091 0 75.170909-36.367515 81.361455-98.940121 7.012848-71.121455-17.764849-118.24097-63.96897-126.386425a60.509091 60.509091 0 0 0 -10.534788-.930909m-393.045333 248.940606c9.24703 0 18.944 4.235636 27.306667 11.915637 8.533333 7.835152 13.498182 15.794424 13.622303 21.845333.155152 6.438788-5.833697 13.389576-9.417697 16.973576-5.585455 5.585455-11.527758 8.440242-17.640728 8.440242-6.935273 0-13.824-3.661576-18.928485-10.038303a57.095758 57.095758 0 0 1 -11.884606-30.021818c-.698182-8.952242 1.50497-13.436121 2.094546-14.056727 3.211636-3.165091 8.766061-5.057939 14.832485-5.05794m550.865454-13.001697a14.894545 14.894545 0 0 1 6.749091 1.458425c2.001455.961939 4.096 4.189091 5.476849 8.424727a42.542545 42.542545 0 0 1 -2.746182 31.278545c-6.733576 12.629333-15.934061 21.116121-22.853818 21.116122-3.165091 0-7.261091-1.396364-11.884606-4.018425l-.760243-.465454c-6.299152-3.723636-14.149818-9.852121-15.732363-17.795879-1.05503-5.399273.775758-11.589818 5.15103-17.423515 9.976242-13.296485 25.025939-22.574545 36.615757-22.574546m-399.375515-182.008242c6.62497 0 13.405091 6.097455 17.92 11.217454 10.038303 11.372606 18.680242 28.951273 24.358788 49.446788 5.197576 18.866424 4.685576 35.638303-1.349818 44.838788-4.390788 6.671515-13.249939 10.969212-26.375758 12.815515a67.490909 67.490909 0 0 1 -9.371151.698182c-13.730909 0-19.471515-5.011394-22.915879-9.386666-6.500848-8.22303-10.224485-22.279758-10.224485-38.570667 0-22.574545 4.12703-43.364848 11.295031-57.080243 6.671515-12.722424 12.443152-13.529212 14.615272-13.839515a15.32897 15.32897 0 0 1 2.048-.155151m241.539879-4.018424c.620606 0 1.241212.062061 1.861818.170666 5.399273.946424 11.093333 3.211636 16.182303 13.156849 3.956364 7.742061 10.100364 25.708606 6.795637 59.190303-2.901333 29.385697-9.852121 42.061576-13.730909 47.010909-2.172121 2.761697-5.430303 6.935273-17.966546 6.935273a77.730909 77.730909 0 0 1 -13.34303-1.318788c-16.973576-2.978909-21.410909-9.929697-22.884849-12.22594-6.749091-10.519273-7.292121-30.099394-1.473939-52.317091 4.980364-18.959515 13.932606-36.507152 24.576-48.128 7.13697-7.819636 14.599758-12.474182 19.983515-12.474181"/>
    <path d="m663.488698 682.635636c-4.980364 0-9.774545-1.985939-13.28097-5.523394l-65.008484-65.473939a18.711273 18.711273 0 0 1 26.546424-26.375758l65.008485 65.47394a18.711273 18.711273 0 0 1 -13.265455 31.899151m-99.234909-99.250424c-5.026909 0-9.852121-2.01697-13.374061-5.60097l-22.760727-23.226181a18.711273 18.711273 0 0 1 26.717091-26.205091l22.760727 23.226182a18.711273 18.711273 0 0 1 -13.34303 31.80606"/>
    <path d="m237.675365 439.125333c9.24703 0 18.944 4.220121 27.306667 11.900122 8.533333 7.835152 13.498182 15.794424 13.622303 21.860848.155152 6.423273-5.833697 13.389576-9.417697 16.958061-5.585455 5.585455-11.527758 8.440242-17.640728 8.440242-6.935273 0-13.824-3.661576-18.928485-10.038303a57.095758 57.095758 0 0 1 -11.884606-30.021818c-.698182-8.952242 1.50497-13.436121 2.094546-14.056727 3.211636-3.165091 8.766061-5.042424 14.832485-5.042425"/>
    <path d="m788.525304 426.108121a14.894545 14.894545 0 0 1 6.749091 1.458424c2.001455.977455 4.096 4.204606 5.476849 8.440243a42.542545 42.542545 0 0 1 -2.746182 31.278545c-6.733576 12.629333-15.934061 21.100606-22.853818 21.100606-3.165091 0-7.261091-1.380848-11.884606-4.018424l-.760243-.449939c-6.299152-3.739152-14.149818-9.867636-15.732363-17.811394-1.05503-5.399273.775758-11.589818 5.15103-17.423515 9.976242-13.296485 25.025939-22.574545 36.615757-22.574546"/>
    <path d="m389.180819 244.099879c6.62497 0 13.405091 6.11297 17.92 11.232969 10.038303 11.372606 18.680242 28.935758 24.358788 49.446788 5.197576 18.866424 4.685576 35.622788-1.349818 44.838788-4.390788 6.671515-13.249939 10.969212-26.375757 12.815515a67.490909 67.490909 0 0 1 -9.371152.698182c-13.730909 0-19.471515-5.026909-22.915879-9.386666-6.500848-8.22303-10.224485-22.279758-10.224485-38.570667 0-22.590061 4.12703-43.380364 11.295031-57.095758 6.671515-12.722424 12.443152-13.529212 14.615272-13.839515a15.32897 15.32897 0 0 1 2.048-.155151"/>
    <path d="m630.720698 240.081455c.620606 0 1.241212.046545 1.861818.155151 5.399273.961939 11.093333 3.211636 16.182303 13.172364 3.956364 7.726545 10.100364 25.708606 6.795637 59.174788-2.901333 29.385697-9.852121 42.077091-13.730909 47.010909-2.172121 2.761697-5.430303 6.935273-17.966546 6.935272a77.730909 77.730909 0 0 1 -13.34303-1.303272c-16.973576-2.994424-21.410909-9.929697-22.884849-12.22594-6.749091-10.534788-7.292121-30.099394-1.473939-52.332606 4.980364-18.959515 13.932606-36.491636 24.576-48.128 7.13697-7.804121 14.599758-12.458667 19.983515-12.458666"/>
</svg>