<svg height="200" viewBox="0 0 1024 1024" width="200" xmlns="http://www.w3.org/2000/svg">
    <path d="M950.784 712.704l-133.12-165.888c14.336-37.376 23.04-77.824 23.04-120.32 0-180.736-147.456-327.68-327.68-327.68-180.736 0-327.68 147.456-327.68 327.68 0 43.52 8.192 84.992 24.064 122.88l-131.072 162.816c-10.24 12.8-12.8 30.208-6.144 45.568 6.144 15.36 20.48 25.088 36.864 27.136l112.64 10.24 36.352 107.52c5.12 15.872 18.432 27.136 34.816 29.696 2.56 0.512 5.12 0.512 7.68 0.512 13.312 0 26.112-6.144 34.816-16.896L465.92 750.592c15.872 2.048 31.744 3.584 48.128 3.584 17.408 0 34.304-1.024 51.2-4.096l130.56 165.376c8.192 10.752 21.504 16.896 34.816 16.896 2.048 0 5.12 0 7.68-0.512 16.384-2.56 29.184-13.824 34.816-29.696l36.352-107.52 112.64-10.24c16.384-1.536 30.208-11.776 36.864-27.136 4.096-14.848 1.536-32.256-8.192-44.544zM303.616 862.208l-40.96-120.832-125.952-11.264 100.864-125.44c39.424 59.904 97.28 106.496 165.888 131.072l-99.84 126.464zM245.248 426.496c0-149.504 117.76-266.752 266.752-266.752 149.504 0 266.752 117.76 266.752 266.752s-117.248 266.752-266.24 266.752c-149.504 0-267.264-117.76-267.264-266.752z m519.68 314.368l-40.96 120.832-100.352-127.488c68.096-24.576 125.952-71.68 164.864-132.096l102.4 126.976-125.952 11.776z"/>
</svg>