<svg height="200" viewBox="0 0 1024 1024" width="200" xmlns="http://www.w3.org/2000/svg">
    <path d="M632.19 590.005c1.274 19.444 18.865 34.026 37.615 32.753 77.888-5.324 111.567-63.423 118.512-93.513 4.398-18.749-7.175-37.151-25.924-41.895a35.2 35.2 0 0 0-8.449-1.042c-15.623 0-29.975 10.647-34.257 26.388-1.62 6.133-12.037 36.687-54.742 39.581-19.445 1.503-34.028 18.285-32.755 37.728zM302.115 606.324c0 14.317 11.607 25.924 25.924 25.924 14.319 0 25.926-11.607 25.926-25.924 0-14.319-11.607-25.926-25.926-25.926-14.317 0.001-25.924 11.608-25.924 25.926M305.935 577.738c17.938-7.524 26.502-28.124 18.98-46.063-14.583-34.951-21.874-72.102-21.874-110.295 0-158.325 128.812-287.137 287.137-287.137 15.855 0 31.712 1.272 47.22 3.819 5.787 0.926 11.459 2.084 17.129 3.356 18.98 4.282 37.961-7.523 42.243-26.503 4.282-18.981-7.523-37.845-26.504-42.243a328.643 328.643 0 0 0-21.294-4.166c-19.329-3.126-39.003-4.746-58.678-4.746-197.211 0-357.734 160.408-357.734 357.736 0 47.566 9.259 93.745 27.312 137.377 7.407 17.707 28.008 26.272 46.063 18.865z"/>
    <path d="M781.835 119.198c-5.902-3.704-12.383-5.556-18.865-5.556-11.689 0-23.03 5.786-29.743 16.319-10.417 16.434-5.556 38.191 10.879 48.724 83.444 53.122 133.326 143.742 133.326 242.579 0 158.324-128.814 287.138-287.138 287.138-69.556 0-136.335-25-188.531-70.599-0.464-0.578-1.042-1.156-1.62-1.736-2.546-2.546-5.324-4.629-8.333-6.249-12.385-7.292-28.124-6.482-39.581 2.43a35.863 35.863 0 0 0-4.514 3.818l-82.287 82.288L164.16 617.087c-14.351-14.351-37.961-14.351-52.428 0-14.351 14.351-14.351 37.961 0 52.428L213 770.783 86.849 897.049c-14.35 14.351-14.35 37.961 0 52.427 14.351 14.351 37.961 14.351 52.428 0L265.543 823.21l107.17 107.17c14.351 14.351 37.961 14.351 52.428 0 14.351-14.351 14.351-37.961 0-52.428L317.74 770.783l61.107-61.109c61.108 44.789 134.831 69.209 211.447 69.209 197.212 0.116 357.62-160.408 357.62-357.62 0-123.025-62.033-235.981-166.079-302.065z"/>
</svg>