<svg height="200" viewBox="0 0 1024 1024" width="200" xmlns="http://www.w3.org/2000/svg">
    <path d="M394.296 429.492c-1.32-19.612-19.047-34.284-37.859-33.046-78.493 5.357-112.488 63.961-119.499 94.206-4.396 18.894 7.268 37.487 26.08 42.184a34.668 34.668 0 0 0 8.493 1.055c15.782 0 30.267-10.726 34.525-26.623 1.666-6.145 12.08-36.956 55.214-39.894 19.601-1.343 34.388-18.294 33.046-37.882zM674.792 413.044c0 14.424 11.693 26.117 26.117 26.117 14.424 0 26.117-11.694 26.117-26.117 0-14.424-11.693-26.117-26.117-26.117-14.423-0.001-26.117 11.693-26.117 26.117M723.148 441.895c-18.119 7.533-26.704 28.336-19.16 46.468 14.67 35.254 22.099 72.662 22.099 111.18 0 159.612-129.865 289.467-289.466 289.467a293.158 293.158 0 0 1-47.625-3.889 292.283 292.283 0 0 1-17.24-3.401c-19.136-4.305-38.204 7.614-42.555 26.739-4.373 19.138 7.59 38.194 26.727 42.567a354.682 354.682 0 0 0 21.497 4.235 364.99 364.99 0 0 0 59.194 4.836c198.801 0 360.555-161.742 360.555-360.555 0-47.935-9.28-94.53-27.561-138.485-7.497-18.109-28.278-26.717-46.465-19.162z"/>
    <path d="M912.392 63.904c-0.107 0-0.205 0.031-0.312 0.031-0.108 0-0.205-0.031-0.313-0.031H569.749c-19.624 0-35.545 15.91-35.545 35.545 0 19.634 15.921 35.544 35.545 35.544h256.518L651.327 309.95c-61.878-45.926-136.868-70.962-214.707-70.962-198.801 0-360.555 161.741-360.555 360.555 0 124.069 62.596 237.909 167.423 304.53a35.492 35.492 0 0 0 19.045 5.542c11.756 0 23.257-5.82 30.015-16.476 10.529-16.568 5.646-38.54-10.923-49.07-84.209-53.5-134.471-144.906-134.471-244.526 0-159.614 129.866-289.468 289.468-289.468 72.036 0 141.065 26.612 194.358 74.942 14.531 13.156 37.026 12.08 50.214-2.465 1.31-1.442 1.838-3.229 2.867-4.812l192.788-192.805v256.533c0 19.635 15.921 35.544 35.544 35.544 19.622 0 35.544-15.909 35.544-35.544V99.449c-0.002-19.635-15.922-35.545-35.545-35.545z"/>
</svg>